<svg width="80" height="80" viewBox="0 0 80 80" fill="none" xmlns="http://www.w3.org/2000/svg">
<path d="M71.4286 0H8.57143C6.29814 0 4.11797 0.903059 2.51051 2.51051C0.903059 4.11797 0 6.29814 0 8.57143L0 71.4286C0 73.7019 0.903059 75.882 2.51051 77.4895C4.11797 79.0969 6.29814 80 8.57143 80H33.0804V52.8018H21.8304V40H33.0804V30.2429C33.0804 19.1446 39.6875 13.0143 49.8071 13.0143C54.6536 13.0143 59.7214 13.8786 59.7214 13.8786V24.7714H54.1375C48.6357 24.7714 46.9196 28.1857 46.9196 31.6875V40H59.2018L57.2375 52.8018H46.9196V80H71.4286C73.7019 80 75.882 79.0969 77.4895 77.4895C79.0969 75.882 80 73.7019 80 71.4286V8.57143C80 6.29814 79.0969 4.11797 77.4895 2.51051C75.882 0.903059 73.7019 0 71.4286 0Z" fill="white"/>
</svg>
