<svg width="36" height="36" viewBox="0 0 36 36" fill="none" xmlns="http://www.w3.org/2000/svg">
<path d="M33.75 36C29.6833 36 25.6417 35 21.625 33C17.6083 31 14 28.4 10.8 25.2C7.6 22 5 18.3917 3 14.375C1 10.3583 0 6.31667 0 2.25C0 1.61667 0.216667 1.08333 0.65 0.65C1.08333 0.216667 1.61667 0 2.25 0H9.25C9.71667 0 10.125 0.158333 10.475 0.475C10.825 0.791667 11.05 1.21667 11.15 1.75L12.5 8.05C12.5667 8.51667 12.5583 8.94167 12.475 9.325C12.3917 9.70833 12.2167 10.0333 11.95 10.3L6.95 15.35C8.81667 18.45 10.9083 21.15 13.225 23.45C15.5417 25.75 18.1667 27.7 21.1 29.3L25.85 24.4C26.1833 24.0333 26.5667 23.775 27 23.625C27.4333 23.475 27.8667 23.45 28.3 23.55L34.25 24.85C34.75 24.95 35.1667 25.2 35.5 25.6C35.8333 26 36 26.4667 36 27V33.75C36 34.3833 35.7833 34.9167 35.35 35.35C34.9167 35.7833 34.3833 36 33.75 36ZM5.45 12.6L9.5 8.5L8.35 3H3C3 4.3 3.2 5.725 3.6 7.275C4 8.825 4.61667 10.6 5.45 12.6ZM33 33V27.65L27.85 26.6L23.9 30.75C25.2667 31.3833 26.75 31.9 28.35 32.3C29.95 32.7 31.5 32.9333 33 33Z" fill="white"/>
</svg>
