<svg width="40" height="40" viewBox="0 0 40 40" fill="none" xmlns="http://www.w3.org/2000/svg">
<path d="M11.15 29.85L23.2 23.95C23.3667 23.8833 23.5083 23.7917 23.625 23.675C23.7417 23.5583 23.8333 23.4167 23.9 23.25L29.8 11.2C29.9667 10.8667 29.925 10.575 29.675 10.325C29.425 10.075 29.1333 10.0333 28.8 10.2L16.75 16.1C16.5833 16.1667 16.4417 16.2583 16.325 16.375C16.2083 16.4917 16.1167 16.6333 16.05 16.8L10.15 28.85C9.98333 29.1833 10.025 29.475 10.275 29.725C10.525 29.975 10.8167 30.0167 11.15 29.85ZM20 22C19.4333 22 18.9583 21.8083 18.575 21.425C18.1917 21.0417 18 20.5667 18 20C18 19.4333 18.1917 18.9583 18.575 18.575C18.9583 18.1917 19.4333 18 20 18C20.5667 18 21.0417 18.1917 21.425 18.575C21.8083 18.9583 22 19.4333 22 20C22 20.5667 21.8083 21.0417 21.425 21.425C21.0417 21.8083 20.5667 22 20 22ZM20 40C17.2667 40 14.6833 39.475 12.25 38.425C9.81667 37.375 7.69167 35.9417 5.875 34.125C4.05833 32.3083 2.625 30.1833 1.575 27.75C0.525 25.3167 0 22.7333 0 20C0 17.2667 0.525 14.6833 1.575 12.25C2.625 9.81667 4.05833 7.69167 5.875 5.875C7.69167 4.05833 9.81667 2.625 12.25 1.575C14.6833 0.525 17.2667 0 20 0C22.7333 0 25.3167 0.525 27.75 1.575C30.1833 2.625 32.3083 4.05833 34.125 5.875C35.9417 7.69167 37.375 9.81667 38.425 12.25C39.475 14.6833 40 17.2667 40 20C40 22.7333 39.475 25.3167 38.425 27.75C37.375 30.1833 35.9417 32.3083 34.125 34.125C32.3083 35.9417 30.1833 37.375 27.75 38.425C25.3167 39.475 22.7333 40 20 40ZM20 37C24.6667 37 28.6667 35.3333 32 32C35.3333 28.6667 37 24.6667 37 20C37 15.3333 35.3333 11.3333 32 8C28.6667 4.66667 24.6667 3 20 3C15.3333 3 11.3333 4.66667 8 8C4.66667 11.3333 3 15.3333 3 20C3 24.6667 4.66667 28.6667 8 32C11.3333 35.3333 15.3333 37 20 37Z" fill="white"/>
</svg>
